<svg xmlns="http://www.w3.org/2000/svg" width="1469.765" height="715.2" viewBox="0 0 1469.765 715.2">
  <defs>
    <style>
      .cls-1, .cls-29 {
        fill: #d8d8d8;
      }

      .cls-1, .cls-10, .cls-11, .cls-12, .cls-13, .cls-14, .cls-15, .cls-16, .cls-17, .cls-18, .cls-19, .cls-2, .cls-20, .cls-21, .cls-22, .cls-23, .cls-24, .cls-26, .cls-27, .cls-28, .cls-3, .cls-30, .cls-31, .cls-32, .cls-33, .cls-34, .cls-35, .cls-36, .cls-37, .cls-38, .cls-39, .cls-4, .cls-40, .cls-41, .cls-42, .cls-43, .cls-44, .cls-45, .cls-46, .cls-47, .cls-48, .cls-49, .cls-5, .cls-50, .cls-51, .cls-52, .cls-6, .cls-7, .cls-8, .cls-9 {
        fill-rule: evenodd;
      }

      .cls-2 {
        fill: #a5a5a5;
      }

      .cls-3 {
        fill: #8e8e8e;
      }

      .cls-4 {
        fill: #e0e0e0;
      }

      .cls-5 {
        fill: #fff;
      }

      .cls-6 {
        fill: #cad566;
      }

      .cls-7 {
        fill: #cbcbcb;
      }

      .cls-8 {
        fill: #979696;
      }

      .cls-9 {
        fill: #656666;
      }

      .cls-10 {
        fill: #ededed;
      }

      .cls-11 {
        fill: #747420;
      }

      .cls-12 {
        fill: #969d3b;
      }

      .cls-13 {
        fill: #bf505c;
      }

      .cls-14 {
        fill: #f2da9c;
      }

      .cls-15 {
        fill: #3c3e4b;
      }

      .cls-16 {
        fill: #963b46;
      }

      .cls-17 {
        fill: #4e4e4e;
      }

      .cls-18 {
        fill: #76232c;
      }

      .cls-19 {
        fill: #2e2e2e;
      }

      .cls-20 {
        fill: #989898;
      }

      .cls-21 {
        fill: #721c25;
      }

      .cls-22, .cls-25 {
        fill: #353635;
      }

      .cls-23 {
        fill: #b62939;
      }

      .cls-24 {
        fill: #d54a52;
      }

      .cls-26 {
        fill: #64909c;
      }

      .cls-27 {
        fill: #a93542;
      }

      .cls-28 {
        fill: #c2e8e2;
      }

      .cls-30 {
        fill: #abc341;
      }

      .cls-31 {
        fill: #849d34;
      }

      .cls-32 {
        fill: #876542;
      }

      .cls-33 {
        fill: #e3fa69;
      }

      .cls-34 {
        fill: #eae2da;
      }

      .cls-35 {
        fill: #5f5a55;
      }

      .cls-36 {
        fill: #4e4a44;
      }

      .cls-37 {
        fill: #9a938c;
      }

      .cls-38 {
        fill: #7f7873;
      }

      .cls-39 {
        fill: #373333;
      }

      .cls-40 {
        fill: #774e30;
      }

      .cls-41 {
        fill: #553721;
      }

      .cls-42 {
        fill: #e6b29c;
      }

      .cls-43 {
        fill: #39281d;
      }

      .cls-44 {
        fill: #e0c29a;
      }

      .cls-46 {
        fill: #f3d0c2;
      }

      .cls-47 {
        fill: #7d5757;
      }

      .cls-48 {
        fill: #d69f88;
      }

      .cls-49 {
        fill: #c4a071;
      }

      .cls-50 {
        fill: #bcbcbc;
      }

      .cls-51 {
        fill: #898989;
      }

      .cls-52 {
        fill: #e1be8f;
      }
    </style>
  </defs>
  <g id="Farm" transform="translate(-225.232 -2431.205)">
    <g id="Group_1" data-name="Group 1" transform="translate(178.588 2177.386)">
      <path id="Path_4" data-name="Path 4" class="cls-1" d="M224.594,780.391H254.76l-9.591-429.045H234.186l-9.592,429.045Z" transform="translate(321.652 176.283)"/>
      <path id="Path_5" data-name="Path 5" class="cls-2" d="M233.026,780.391h11.182l-9.591-429.045h-4.185l2.594,429.045Z" transform="translate(332.203 176.283)"/>
      <path id="Path_6" data-name="Path 6" class="cls-1" d="M276.426,373.434c-3.863,7.715-8.058,21.4-12.4,25.748-4.708,4.706-41.782,34.567-60.368,47.84-2.911,2.081-5.275,2.451-6.7,1.025a3.43,3.43,0,0,1,0-4.854l92.062-92.065a3.433,3.433,0,0,1,4.854,4.857l-17.449,17.449Z" transform="translate(269.881 174.073)"/>
      <path id="Path_7" data-name="Path 7" class="cls-2" d="M275.778,358.426c-3.863,7.715-8.058,21.4-12.4,25.748-4.708,4.706-41.782,34.567-60.368,47.84-2.911,2.08-5.275,2.451-6.7,1.025l79.467-74.613Z" transform="translate(270.529 189.081)"/>
      <path id="Path_8" data-name="Path 8" class="cls-1" d="M244.163,411.575c-4.75-7.2-14.507-17.676-16.1-23.614-1.724-6.429-9.046-53.467-11.25-76.2-.345-3.56.519-5.795,2.465-6.314a3.434,3.434,0,0,1,4.206,2.428l33.7,125.758a3.434,3.434,0,1,1-6.634,1.777l-6.387-23.836Z" transform="translate(307.461 93.106)"/>
      <path id="Path_9" data-name="Path 9" class="cls-2" d="M244.163,411.5c-4.75-7.2-14.507-17.676-16.1-23.614-1.724-6.429-9.046-53.467-11.25-76.2-.345-3.56.519-5.795,2.465-6.314L244.163,411.5Z" transform="translate(307.461 93.182)"/>
      <path id="Path_10" data-name="Path 10" class="cls-1" d="M256.9,356.628c8.614-.514,22.564-3.726,28.5-2.134,6.429,1.721,50.825,18.9,71.615,28.359,3.257,1.48,4.759,3.344,4.237,5.289a3.434,3.434,0,0,1-4.2,2.428l-125.761-33.7a3.433,3.433,0,1,1,1.777-6.631l23.836,6.387Z" transform="translate(329.151 174.073)"/>
      <path id="Path_11" data-name="Path 11" class="cls-2" d="M238.773,354.1c8.614-.514,22.564-3.726,28.5-2.134,6.429,1.721,50.825,18.9,71.615,28.359,3.257,1.48,4.759,3.344,4.237,5.29L238.773,354.1Z" transform="translate(347.28 176.605)"/>
      <path id="Path_12" data-name="Path 12" class="cls-3" d="M240.9,345.3a16.986,16.986,0,1,1-16.988,16.986A16.985,16.985,0,0,1,240.9,345.3Z" transform="translate(320.426 165.348)"/>
      <path id="Path_13" data-name="Path 13" class="cls-4" d="M235.793,348.124a9.046,9.046,0,1,1-9.049,9.046,9.043,9.043,0,0,1,9.049-9.046Z" transform="translate(325.537 170.46)"/>
      <path id="Path_14" data-name="Path 14" class="cls-5" d="M232.109,347.635a6.325,6.325,0,1,1-6.323,6.325,6.325,6.325,0,0,1,6.323-6.325Z" transform="translate(323.806 169.576)"/>
      <path id="Path_15" data-name="Path 15" class="cls-1" d="M143.325,755.179h27.413l-8.716-389.886h-9.98l-8.717,389.886Z" transform="translate(174.755 201.495)"/>
      <path id="Path_16" data-name="Path 16" class="cls-2" d="M150.987,755.179h10.162l-8.716-389.886h-3.8l2.357,389.886Z" transform="translate(184.343 201.495)"/>
      <path id="Path_17" data-name="Path 17" class="cls-1" d="M179.791,388.283c-1.575,7.681-2.038,20.68-4.829,25.518-3.024,5.239-28.544,40.167-41.734,56.193-2.066,2.51-4.057,3.389-5.643,2.473a3.119,3.119,0,0,1-1.14-4.262L185.6,365.744a3.12,3.12,0,1,1,5.4,3.119l-11.213,19.42Z" transform="translate(143.485 199.487)"/>
      <path id="Path_18" data-name="Path 18" class="cls-2" d="M178.787,372.767c-1.575,7.681-2.038,20.68-4.829,25.518-3.024,5.239-28.544,40.167-41.734,56.193-2.066,2.51-4.057,3.389-5.643,2.473l52.206-84.184Z" transform="translate(144.489 215.003)"/>
      <path id="Path_19" data-name="Path 19" class="cls-1" d="M174.277,415.41c-5.865-5.208-16.89-12.106-19.684-16.944-3.024-5.239-20.515-44.8-27.795-64.239-1.14-3.043-.91-5.208.677-6.12a3.121,3.121,0,0,1,4.262,1.14L190.895,431.71a3.12,3.12,0,0,1-5.4,3.119l-11.213-19.42Z" transform="translate(143.595 133.521)"/>
      <path id="Path_20" data-name="Path 20" class="cls-2" d="M174.277,415.14c-5.865-5.208-16.89-12.106-19.684-16.944-3.024-5.239-20.515-44.8-27.795-64.239-1.14-3.043-.91-5.208.677-6.12l46.8,87.3Z" transform="translate(143.595 133.79)"/>
      <path id="Path_21" data-name="Path 21" class="cls-1" d="M172.639,369.705c7.443-2.476,18.931-8.577,24.515-8.577,6.047,0,49.059,4.635,69.531,8.049,3.206.533,4.964,1.816,4.964,3.647a3.12,3.12,0,0,1-3.122,3.119H150.215a3.119,3.119,0,1,1,0-6.238Z" transform="translate(181.571 193.965)"/>
      <path id="Path_22" data-name="Path 22" class="cls-2" d="M156.194,369.705c7.443-2.476,18.931-8.577,24.515-8.577,6.047,0,49.059,4.635,69.531,8.049,3.206.533,4.964,1.816,4.964,3.647l-99.011-3.119Z" transform="translate(198.016 193.965)"/>
      <path id="Path_23" data-name="Path 23" class="cls-3" d="M158.145,359.8a15.436,15.436,0,1,1-15.436,15.436A15.436,15.436,0,0,1,158.145,359.8Z" transform="translate(173.641 191.557)"/>
      <path id="Path_24" data-name="Path 24" class="cls-4" d="M153.5,362.366a8.22,8.22,0,1,1-8.218,8.22,8.221,8.221,0,0,1,8.218-8.22Z" transform="translate(178.288 196.203)"/>
      <path id="Path_25" data-name="Path 25" class="cls-5" d="M150.155,361.922a5.747,5.747,0,1,1-5.747,5.747,5.747,5.747,0,0,1,5.747-5.747Z" transform="translate(176.712 195.4)"/>
      <path id="Path_26" data-name="Path 26" class="cls-1" d="M72.005,720.805H95.664L88.142,384.311H79.528L72.005,720.805Z" transform="translate(45.841 235.869)"/>
      <path id="Path_27" data-name="Path 27" class="cls-2" d="M78.618,720.805h8.77L79.866,384.311H76.583l2.035,336.494Z" transform="translate(54.117 235.869)"/>
      <path id="Path_28" data-name="Path 28" class="cls-1" d="M92.653,405.431c.387,6.758,2.883,17.7,1.626,22.356-1.362,5.04-14.908,39.831-22.359,56.12-1.165,2.549-2.631,3.726-4.155,3.313a2.693,2.693,0,0,1-1.9-3.3L92.5,385.343a2.693,2.693,0,1,1,5.2,1.4l-5.048,18.684Z" transform="translate(34.576 234.135)"/>
      <path id="Path_29" data-name="Path 29" class="cls-2" d="M91.371,391.216c.387,6.758,2.883,17.7,1.626,22.356-1.362,5.039-14.908,39.831-22.359,56.12-1.165,2.549-2.631,3.726-4.155,3.313l24.889-81.789Z" transform="translate(35.858 248.35)"/>
      <path id="Path_30" data-name="Path 30" class="cls-1" d="M108.7,420.814c-6.047-3.043-16.772-6.353-20.172-9.767-3.686-3.7-27.042-32.826-37.424-47.425-1.626-2.285-1.909-4.141-.792-5.256a2.692,2.692,0,0,1,3.807.006l72.053,72.356a2.693,2.693,0,0,1-3.815,3.8L108.7,420.814Z" transform="translate(5.413 187.552)"/>
      <path id="Path_31" data-name="Path 31" class="cls-2" d="M108.7,420.308c-6.047-3.043-16.772-6.354-20.172-9.767-3.686-3.7-27.042-32.826-37.424-47.425-1.626-2.285-1.909-4.141-.792-5.256L108.7,420.308Z" transform="translate(5.413 188.058)"/>
      <path id="Path_32" data-name="Path 32" class="cls-1" d="M95.966,395.353c5.657-3.714,13.889-11.348,18.547-12.586,5.045-1.342,41.947-7.008,59.781-8.7,2.794-.264,4.543.416,4.947,1.943a2.688,2.688,0,0,1-1.909,3.293L78.644,405.527a2.693,2.693,0,0,1-1.384-5.205l18.707-4.969Z" transform="translate(51.724 217.255)"/>
      <path id="Path_33" data-name="Path 33" class="cls-2" d="M82.635,395.353c5.657-3.714,13.889-11.348,18.547-12.586,5.045-1.342,41.947-7.008,59.781-8.7,2.793-.264,4.543.416,4.947,1.943L82.635,395.353Z" transform="translate(65.055 217.255)"/>
      <path id="Path_34" data-name="Path 34" class="cls-3" d="M84.8,379.566a13.322,13.322,0,1,1-13.322,13.322A13.322,13.322,0,0,1,84.8,379.566Z" transform="translate(44.881 227.292)"/>
      <path id="Path_35" data-name="Path 35" class="cls-4" d="M80.787,381.784a7.095,7.095,0,1,1-7.095,7.095,7.1,7.1,0,0,1,7.095-7.095Z" transform="translate(48.89 231.301)"/>
      <path id="Path_36" data-name="Path 36" class="cls-5" d="M77.9,381.4a4.96,4.96,0,1,1-4.961,4.961A4.96,4.96,0,0,1,77.9,381.4Z" transform="translate(47.531 230.609)"/>
      <path id="Path_37" data-name="Path 37" class="cls-6" d="M567.038,490.433a49.4,49.4,0,0,1,0,98.609v68.846H442.569V481.354a62.235,62.235,0,0,1,124.469,0v9.079Z" transform="translate(715.649 298.786)"/>
      <path id="Path_38" data-name="Path 38" class="cls-6" d="M442.431,400.81a51.106,51.106,0,0,1,51.106,51.106V690.983H391.325V451.916a51.106,51.106,0,0,1,51.106-51.106Z" transform="translate(623.023 265.691)"/>
      <path id="Path_39" data-name="Path 39" class="cls-7" d="M359.815,795.414h96.551V343.034H359.815v452.38Z" transform="translate(566.068 161.26)"/>
      <path id="Path_40" data-name="Path 40" class="cls-8" d="M394.205,795.414h31.617V343.034H394.205v452.38Z" transform="translate(628.23 161.26)"/>
      <path id="Path_41" data-name="Path 41" class="cls-8" d="M362.6,343.034h96.551V351.7H362.6a4.333,4.333,0,0,1,0-8.667Z" transform="translate(563.279 161.259)"/>
      <path id="Path_42" data-name="Path 42" class="cls-9" d="M425.824,343.034H394.205V351.7h31.619a4.333,4.333,0,0,0,0-8.667Z" transform="translate(628.229 161.259)"/>
      <path id="Path_43" data-name="Path 43" class="cls-7" d="M423.9,320.208a64.083,64.083,0,0,1,64.085,64.085H359.816A64.082,64.082,0,0,1,423.9,320.208Z" transform="translate(566.07 120.001)"/>
      <path id="Path_44" data-name="Path 44" class="cls-10" d="M408.089,325.839a48.274,48.274,0,0,1,48.276,48.276H359.816a48.273,48.273,0,0,1,48.273-48.276Z" transform="translate(566.07 130.179)"/>
      <path id="Path_45" data-name="Path 45" class="cls-5" d="M386.94,328.6c8.532,1.923,13.737,11.076,11.626,20.442s-10.739,15.4-19.271,13.479-13.74-11.076-11.629-20.444,10.742-15.4,19.274-13.476Z" transform="translate(579.411 134.524)"/>
      <path id="Path_46" data-name="Path 46" class="cls-8" d="M362.6,363.175h96.551v8.667H362.6a4.333,4.333,0,0,1,0-8.667Z" transform="translate(563.279 197.665)"/>
      <path id="Path_47" data-name="Path 47" class="cls-9" d="M425.824,363.175H394.205v8.667h31.619a4.333,4.333,0,0,0,0-8.667Z" transform="translate(628.229 197.665)"/>
      <path id="Path_48" data-name="Path 48" class="cls-8" d="M362.6,383.316q48.278,0,96.551,0v8.667H362.6a4.335,4.335,0,0,1,0-8.67Z" transform="translate(563.279 234.071)"/>
      <path id="Path_49" data-name="Path 49" class="cls-9" d="M425.824,383.316H394.205v8.67h31.619a4.335,4.335,0,0,0,0-8.67Z" transform="translate(628.229 234.071)"/>
      <path id="Path_50" data-name="Path 50" class="cls-8" d="M362.6,403.458h96.551v8.667H362.6a4.333,4.333,0,0,1,0-8.667Z" transform="translate(563.279 270.478)"/>
      <path id="Path_51" data-name="Path 51" class="cls-9" d="M425.824,403.458H394.205v8.667h31.619a4.333,4.333,0,0,0,0-8.667Z" transform="translate(628.229 270.478)"/>
      <path id="Path_52" data-name="Path 52" class="cls-8" d="M362.6,423.6h96.551v8.67q-48.274,0-96.551,0a4.333,4.333,0,0,1,0-8.667Z" transform="translate(563.279 306.884)"/>
      <path id="Path_53" data-name="Path 53" class="cls-9" d="M425.824,423.6H394.205v8.667h31.619a4.333,4.333,0,0,0,0-8.667Z" transform="translate(628.229 306.884)"/>
      <path id="Path_54" data-name="Path 54" class="cls-8" d="M362.6,443.741h96.551v8.667H362.6a4.333,4.333,0,0,1,0-8.667Z" transform="translate(563.279 343.291)"/>
      <path id="Path_55" data-name="Path 55" class="cls-9" d="M425.824,443.741H394.205v8.667h31.619a4.333,4.333,0,0,0,0-8.667Z" transform="translate(628.229 343.291)"/>
      <path id="Path_56" data-name="Path 56" class="cls-8" d="M362.6,463.882h96.551v8.667H362.6a4.333,4.333,0,0,1,0-8.667Z" transform="translate(563.279 379.696)"/>
      <path id="Path_57" data-name="Path 57" class="cls-9" d="M425.824,463.882H394.205v8.667h31.619a4.333,4.333,0,0,0,0-8.667Z" transform="translate(628.229 379.696)"/>
      <path id="Path_58" data-name="Path 58" class="cls-8" d="M362.6,484.023q48.278,0,96.551,0v8.664H362.6a4.333,4.333,0,0,1,0-8.667Z" transform="translate(563.279 416.102)"/>
      <path id="Path_59" data-name="Path 59" class="cls-9" d="M425.824,484.023H394.205v8.667h31.619a4.333,4.333,0,0,0,0-8.667Z" transform="translate(628.229 416.102)"/>
      <path id="Path_60" data-name="Path 60" class="cls-7" d="M414.422,795.414h96.551V343.034H414.422v452.38Z" transform="translate(664.773 161.26)"/>
      <path id="Path_61" data-name="Path 61" class="cls-8" d="M448.812,795.414H480.43V343.034H448.812v452.38Z" transform="translate(726.934 161.26)"/>
      <path id="Path_62" data-name="Path 62" class="cls-8" d="M417.211,343.034h96.551V351.7H417.211a4.333,4.333,0,0,1,0-8.667Z" transform="translate(661.983 161.259)"/>
      <path id="Path_63" data-name="Path 63" class="cls-9" d="M480.43,343.034H448.812V351.7H480.43a4.333,4.333,0,0,0,0-8.667Z" transform="translate(726.933 161.259)"/>
      <path id="Path_64" data-name="Path 64" class="cls-7" d="M478.508,320.208a64.082,64.082,0,0,1,64.082,64.085H414.423a64.083,64.083,0,0,1,64.085-64.085Z" transform="translate(664.774 120.001)"/>
      <path id="Path_65" data-name="Path 65" class="cls-10" d="M462.7,325.839a48.273,48.273,0,0,1,48.273,48.276H414.423A48.274,48.274,0,0,1,462.7,325.839Z" transform="translate(664.774 130.179)"/>
      <path id="Path_66" data-name="Path 66" class="cls-5" d="M441.546,328.6c8.532,1.923,13.737,11.076,11.626,20.442s-10.739,15.4-19.271,13.479-13.737-11.076-11.629-20.444,10.742-15.4,19.274-13.476Z" transform="translate(678.116 134.524)"/>
      <path id="Path_67" data-name="Path 67" class="cls-8" d="M417.214,363.175h96.548v8.667H417.214a4.333,4.333,0,1,1,0-8.667Z" transform="translate(661.983 197.665)"/>
      <path id="Path_68" data-name="Path 68" class="cls-9" d="M480.43,363.175H448.812v8.667H480.43a4.333,4.333,0,0,0,0-8.667Z" transform="translate(726.933 197.665)"/>
      <path id="Path_69" data-name="Path 69" class="cls-8" d="M417.214,383.316q48.274,0,96.548,0v8.667H417.214a4.335,4.335,0,0,1,0-8.67Z" transform="translate(661.983 234.071)"/>
      <path id="Path_70" data-name="Path 70" class="cls-9" d="M480.43,383.316H448.812v8.67H480.43a4.335,4.335,0,0,0,0-8.67Z" transform="translate(726.933 234.071)"/>
      <path id="Path_71" data-name="Path 71" class="cls-8" d="M417.214,403.458h96.548v8.667H417.214a4.333,4.333,0,1,1,0-8.667Z" transform="translate(661.983 270.478)"/>
      <path id="Path_72" data-name="Path 72" class="cls-9" d="M480.43,403.458H448.812v8.667H480.43a4.333,4.333,0,0,0,0-8.667Z" transform="translate(726.933 270.478)"/>
      <path id="Path_73" data-name="Path 73" class="cls-8" d="M417.214,423.6h96.548v8.67q-48.274,0-96.548,0a4.333,4.333,0,1,1,0-8.667Z" transform="translate(661.983 306.884)"/>
      <path id="Path_74" data-name="Path 74" class="cls-9" d="M480.43,423.6H448.812v8.667H480.43a4.333,4.333,0,0,0,0-8.667Z" transform="translate(726.933 306.884)"/>
      <path id="Path_75" data-name="Path 75" class="cls-8" d="M417.214,443.741h96.548v8.667H417.214a4.333,4.333,0,1,1,0-8.667Z" transform="translate(661.983 343.291)"/>
      <path id="Path_76" data-name="Path 76" class="cls-9" d="M480.43,443.741H448.812v8.667H480.43a4.333,4.333,0,0,0,0-8.667Z" transform="translate(726.933 343.291)"/>
      <path id="Path_77" data-name="Path 77" class="cls-8" d="M417.214,463.882h96.548v8.667H417.214a4.333,4.333,0,1,1,0-8.667Z" transform="translate(661.983 379.696)"/>
      <path id="Path_78" data-name="Path 78" class="cls-9" d="M480.43,463.882H448.812v8.667H480.43a4.333,4.333,0,0,0,0-8.667Z" transform="translate(726.933 379.696)"/>
      <path id="Path_79" data-name="Path 79" class="cls-8" d="M417.214,484.023q48.274,0,96.548,0v8.664H417.214a4.333,4.333,0,1,1,0-8.667Z" transform="translate(661.983 416.102)"/>
      <path id="Path_80" data-name="Path 80" class="cls-9" d="M480.43,484.023H448.812v8.667H480.43a4.333,4.333,0,0,0,0-8.667Z" transform="translate(726.933 416.102)"/>
      <path id="Path_81" data-name="Path 81" class="cls-5" d="M139.992,315.122a42.764,42.764,0,0,1,24.572,7.771c11.96-24.763,30.156-41.535,48.043-41.535,22.5,0,37.191,26.534,36.492,62.134a52.221,52.221,0,0,1,31.843-10.9c20.838,0,34.836,13.038,31.27,29.12H95.563c0-25.731,19.891-46.591,44.429-46.591Z" transform="translate(88.423 49.78)"/>
      <path id="Path_82" data-name="Path 82" class="cls-5" d="M185.771,288.531c10.354,0,20.989,5.183,29.033,13.209,9.422-27.758,27.854-47.922,45.914-47.922,18.1,0,30.232,20.256,30.917,48.113a75.178,75.178,0,0,1,11.432-.879c21.382,0,35.751,9.341,32.09,20.866H163.2c-5.118-18.44,4.986-33.387,22.57-33.387Z" transform="translate(208.277)"/>
      <path id="Path_83" data-name="Path 83" class="cls-5" d="M332.031,306.74c9.655,0,19.538,4.15,27.674,10.84,10.52-24.732,28.814-42.169,46.765-42.169,19.771,0,32.857,21.152,32.958,49.91a68.793,68.793,0,0,1,33.281-8.437c23.238,0,38.853,11.7,34.875,26.141H307.5c-5.562-20.04,5.419-36.285,24.529-36.285Z" transform="translate(468.897 39.028)"/>
      <path id="Path_84" data-name="Path 84" class="cls-5" d="M303.719,291.244c11.1,0,22.008,9.195,29.476,23.162H279.967c4.018-13.967,12.656-23.162,23.752-23.162Z" transform="translate(421.74 67.647)"/>
      <path id="Path_85" data-name="Path 85" class="cls-5" d="M257.734,271.586c8.729,0,13.445,7.235,13.448,18.218H229.319c9.029-10.983,19.689-18.218,28.415-18.218Z" transform="translate(330.192 32.114)"/>
      <path id="Path_86" data-name="Path 86" class="cls-11" d="M52.818,504.165H1490.583a6.172,6.172,0,1,1,0,12.345H52.818a6.172,6.172,0,1,1,0-12.345Z" transform="translate(0 452.509)"/>
      <path id="Path_87" data-name="Path 87" class="cls-6" d="M496.417,402.162A60.437,60.437,0,0,1,556.855,462.6V688.539H142.033a44.933,44.933,0,0,1,32-72.435c-30.043-40.909-.354-114.4,79.144-87.342A74.9,74.9,0,0,1,387.3,464.978a39.445,39.445,0,0,1,49.559-12.665,60.454,60.454,0,0,1,59.562-50.151Z" transform="translate(155.246 268.135)"/>
      <path id="Path_88" data-name="Path 88" class="cls-12" d="M387.414,620.343v-119.6c0-64.284,88.3-84.588,115.047-26.781,27.55-17.977,54.121-16.48,60.213,11.32,44.514-21.242,104.059-16.023,104.075,41.055,19.293-15.495,56.721-4,49.345,34.392,36.425-13.443,70.068,23.648,62.35,59.618Z" transform="translate(615.954 336.332)"/>
      <path id="Path_89" data-name="Path 89" class="cls-12" d="M406.447,455.427a42.5,42.5,0,0,1,42.495,42.495v94.339H195.214a37.506,37.506,0,0,1,51.392-28.438,35.257,35.257,0,0,1,58.666-31.349,56.2,56.2,0,0,1,61.2-20.125,42.515,42.515,0,0,1,39.979-56.923Z" transform="translate(268.546 364.414)"/>
      <path id="Path_90" data-name="Path 90" class="cls-13" d="M266.123,567.367,296.4,537.35l37.342-109.44L461.73,352.273,589.714,427.91l37.342,109.44,30.281,30.016V778.716H266.123V567.367Z" transform="translate(396.715 177.958)"/>
      <path id="Path_91" data-name="Path 91" class="cls-14" d="M628.425,429.279,485.364,344.73,342.3,429.279,304.166,541.047l-49.954,49.519a3.961,3.961,0,0,0-.022,5.587l7.269,7.333a3.963,3.963,0,0,0,5.587.025l52.992-52.529L357.38,441.545l127.984-75.638,127.984,75.638,37.34,109.438,52.992,52.529a3.967,3.967,0,0,0,5.59-.025l7.269-7.333a3.961,3.961,0,0,0-.025-5.587l-49.952-49.519L628.425,429.279Z" transform="translate(373.082 164.325)"/>
      <path id="Path_92" data-name="Path 92" class="cls-15" d="M318.164,445.619h98.4V609.989h-98.4V445.619Z" transform="translate(490.782 346.685)"/>
      <path id="Path_93" data-name="Path 93" class="cls-14" d="M300.46,599.054H370.2V468.178L300.46,599.054ZM364,456.552H294.263V587.428L364,456.552Zm17.132,153.438h-97.8V445.619h97.8v164.37Z" transform="translate(427.815 346.685)"/>
      <path id="Path_94" data-name="Path 94" class="cls-14" d="M433.888,599.054H364.148V468.178l69.739,130.876Zm-63.546-142.5h69.739V587.428L370.342,456.552ZM353.213,609.989h97.8V445.619h-97.8v164.37Z" transform="translate(554.135 346.685)"/>
      <path id="Path_95" data-name="Path 95" class="cls-16" d="M266.123,432.521V643.87h5.7v-217l-5.7,5.647Z" transform="translate(396.715 312.804)"/>
      <path id="Path_96" data-name="Path 96" class="cls-16" d="M275.931,426.489V665.135h5.7V415.11l-2.953,8.659-2.743,2.72Z" transform="translate(414.445 291.539)"/>
      <path id="Path_97" data-name="Path 97" class="cls-16" d="M285.739,403.061V552.723h5.7V386.365l-5.7,16.7Z" transform="translate(432.173 239.582)"/>
      <path id="Path_98" data-name="Path 98" class="cls-16" d="M295.548,378.228V573.52h5.7V374.859l-5.7,3.369Z" transform="translate(449.903 218.784)"/>
      <path id="Path_99" data-name="Path 99" class="cls-16" d="M305.356,372.429V584h5.7V369.063l-5.7,3.366Z" transform="translate(467.631 208.308)"/>
      <path id="Path_100" data-name="Path 100" class="cls-16" d="M315.164,366.632V594.475h5.7V363.266l-5.7,3.366Z" transform="translate(485.36 197.829)"/>
      <path id="Path_101" data-name="Path 101" class="cls-16" d="M324.972,360.836V604.952h5.7V357.47l-5.7,3.366Z" transform="translate(503.088 187.353)"/>
      <path id="Path_102" data-name="Path 102" class="cls-16" d="M334.78,353.955V614.345h5.7V353.955l-2.85-1.682-2.85,1.682Z" transform="translate(520.816 177.959)"/>
      <path id="Path_103" data-name="Path 103" class="cls-16" d="M344.588,357.47V604.952h5.7V360.836l-5.7-3.366Z" transform="translate(538.545 187.353)"/>
      <path id="Path_104" data-name="Path 104" class="cls-16" d="M354.4,363.266V594.475h5.7V366.635l-5.7-3.369Z" transform="translate(556.275 197.829)"/>
      <path id="Path_105" data-name="Path 105" class="cls-16" d="M364.2,369.063V584h5.7V372.429l-5.7-3.366Z" transform="translate(574.003 208.308)"/>
      <path id="Path_106" data-name="Path 106" class="cls-16" d="M374.013,374.86V573.518h5.7V378.226l-5.7-3.366Z" transform="translate(591.731 218.786)"/>
      <path id="Path_107" data-name="Path 107" class="cls-16" d="M383.821,386.366V552.721h5.7V403.062l-5.7-16.7Z" transform="translate(609.46 239.584)"/>
      <path id="Path_108" data-name="Path 108" class="cls-16" d="M393.63,415.111V665.133h5.7V426.487l-2.746-2.72-2.951-8.656Z" transform="translate(627.19 291.541)"/>
      <path id="Path_109" data-name="Path 109" class="cls-16" d="M403.438,426.874v217h5.7V432.521l-5.7-5.647Z" transform="translate(644.917 312.804)"/>
      <path id="Path_110" data-name="Path 110" class="cls-15" d="M312.366,400.883h36.562v36.98H312.366v-36.98Z" transform="translate(480.302 265.823)"/>
      <path id="Path_111" data-name="Path 111" class="cls-14" d="M306.524,398.89V387.955H375.89V398.89h-5.469v78.743H359.488v-5.469H322.926v5.469H311.99V398.89Zm16.4,18.488h36.563V398.89H322.926v18.488Zm36.563,7.291H322.926v36.562h36.563V424.669Z" transform="translate(469.743 242.456)"/>
      <path id="Path_112" data-name="Path 112" class="cls-15" d="M312.366,391.85h36.562v18.49H312.366V391.85Z" transform="translate(480.302 249.495)"/>
      <path id="Path_113" data-name="Path 113" class="cls-15" d="M346.2,400.883h36.561v36.98H346.2v-36.98Z" transform="translate(541.46 265.823)"/>
      <path id="Path_114" data-name="Path 114" class="cls-14" d="M340.359,398.89V387.955h69.363V398.89h-5.466v78.743H393.32v-5.469h-36.56v5.469H345.825V398.89Zm16.4,18.488h36.56V398.89h-36.56v18.488Zm36.56,7.291h-36.56v36.562h36.56V424.669Z" transform="translate(530.901 242.456)"/>
      <path id="Path_115" data-name="Path 115" class="cls-15" d="M346.2,391.85h36.561v18.49H346.2V391.85Z" transform="translate(541.46 249.495)"/>
      <path id="Path_116" data-name="Path 116" class="cls-7" d="M272.773,440.426H626.645v7.289H272.773v-7.289Z" transform="translate(408.736 337.299)"/>
      <path id="Path_117" data-name="Path 117" class="cls-17" d="M367.663,435.428a10.656,10.656,0,1,1-10.655,10.655,10.654,10.654,0,0,1,10.655-10.655Z" transform="translate(560.994 328.265)"/>
      <path id="Path_118" data-name="Path 118" class="cls-7" d="M359.5,459.526V441.569a3.655,3.655,0,0,1,3.644-3.644h0a3.657,3.657,0,0,1,3.647,3.644v17.957Z" transform="translate(565.508 332.778)"/>
      <path id="Path_119" data-name="Path 119" class="cls-17" d="M387.318,435.428a10.656,10.656,0,1,1-10.655,10.655,10.654,10.654,0,0,1,10.655-10.655Z" transform="translate(596.521 328.265)"/>
      <path id="Path_120" data-name="Path 120" class="cls-7" d="M379.16,459.526V441.569a3.655,3.655,0,0,1,3.644-3.644h0a3.655,3.655,0,0,1,3.644,3.644v17.957Z" transform="translate(601.035 332.778)"/>
      <path id="Path_121" data-name="Path 121" class="cls-17" d="M297.78,435.428a10.656,10.656,0,1,1-10.657,10.655,10.654,10.654,0,0,1,10.657-10.655Z" transform="translate(434.675 328.265)"/>
      <path id="Path_122" data-name="Path 122" class="cls-7" d="M289.62,459.526V441.569a3.657,3.657,0,0,1,3.647-3.644h0a3.655,3.655,0,0,1,3.644,3.644v17.957Z" transform="translate(439.188 332.778)"/>
      <path id="Path_123" data-name="Path 123" class="cls-17" d="M317.433,435.428a10.656,10.656,0,1,1-10.655,10.655,10.655,10.655,0,0,1,10.655-10.655Z" transform="translate(470.202 328.265)"/>
      <path id="Path_124" data-name="Path 124" class="cls-7" d="M309.275,459.526V441.569a3.655,3.655,0,0,1,3.644-3.644h0a3.655,3.655,0,0,1,3.647,3.644v17.957Z" transform="translate(474.715 332.778)"/>
      <path id="Path_125" data-name="Path 125" class="cls-18" d="M461.73,352.273,589.714,427.91l8.334,24.422-123.5-72.99L346.559,454.98,309.216,564.42l-43.094,42.717v-39.77L296.4,537.35l37.342-109.44L461.73,352.273Z" transform="translate(396.715 177.958)"/>
      <path id="Path_126" data-name="Path 126" class="cls-17" d="M190.283,436.262h9.223a1.663,1.663,0,0,1,1.662,1.656v44.733c-3.608.224-7.864.6-12.544,1.134V437.918a1.662,1.662,0,0,1,1.659-1.656Z" transform="translate(256.634 329.772)"/>
      <path id="Path_127" data-name="Path 127" class="cls-19" d="M201.208,470.6a47.119,47.119,0,1,1-47.116,47.119A47.119,47.119,0,0,1,201.208,470.6Z" transform="translate(194.216 391.838)"/>
      <path id="Path_128" data-name="Path 128" class="cls-20" d="M187.78,478.029a26.259,26.259,0,1,1-26.259,26.259,26.26,26.26,0,0,1,26.259-26.259Z" transform="translate(207.644 405.268)"/>
      <path id="Path_129" data-name="Path 129" class="cls-19" d="M272.859,459A63.407,63.407,0,1,1,209.454,522.4,63.407,63.407,0,0,1,272.859,459Z" transform="translate(294.285 370.865)"/>
      <path id="Path_130" data-name="Path 130" class="cls-20" d="M256.933,467.808a38.668,38.668,0,1,1-38.668,38.668,38.667,38.667,0,0,1,38.668-38.668Z" transform="translate(310.211 386.793)"/>
      <path id="Path_131" data-name="Path 131" class="cls-21" d="M159.055,491.064c5.107-28.758,83.681-38.371,104.3-38.371v.011a186.7,186.7,0,0,0,2.111,57.162h32.649l0-.011A71.532,71.532,0,0,1,419.583,486.97l-6.129,5.312a63.424,63.424,0,0,0-107.885,62.187H240.762q.16-1.937.163-3.914l-.006,0c0-.157.006-.312.006-.469a47.117,47.117,0,0,0-82.106-31.557l-.632-8.661.868-18.8Z" transform="translate(201.618 359.472)"/>
      <path id="Path_132" data-name="Path 132" class="cls-22" d="M208.926,432.621l92.935.048,9.748,57.279q-2.771-.708-5.646-1.2c-27.814-4.728-74.161,8.88-79.667,57.4H198.563c-7.4-37.194-2-74.492,10.363-113.523Z" transform="translate(268.52 323.191)"/>
      <path id="Path_133" data-name="Path 133" class="cls-23" d="M294.265,430.29c-30.3-3.566-58.141-2.516-91.439,3.6-3.79.477-5.045,6.637-1.269,6.637l92.935.048c5.371,0,6.244-9.52-.227-10.281Z" transform="translate(275.889 315.289)"/>
      <path id="Path_134" data-name="Path 134" class="cls-24" d="M334.712,484.91c1.6,2.347.834,5.441-1.061,3.942A71.532,71.532,0,0,0,211.192,510.58h-4.916c5.506-48.52,51.852-62.128,79.667-57.4,21.455,3.647,38.531,16.719,48.77,31.731Z" transform="translate(288.541 358.758)"/>
      <path id="Path_135" data-name="Path 135" class="cls-17" d="M152.637,475.192h18.305a5.167,5.167,0,0,1,5.152,5.121,46.908,46.908,0,0,0-10.059,29.1h-13.4a5.168,5.168,0,0,1-5.152-5.152v-23.92a5.166,5.166,0,0,1,5.152-5.152Z" transform="translate(182.274 400.14)"/>
      <path id="Path_136" data-name="Path 136" class="cls-17" d="M178.346,483.247a11.609,11.609,0,1,1-11.606,11.609,11.608,11.608,0,0,1,11.606-11.609Z" transform="translate(217.078 414.699)"/>
      <path id="Path_137" data-name="Path 137" class="cls-24" d="M158.773,491.064c5.107-28.758,83.681-38.371,104.3-38.371v.011a186.7,186.7,0,0,0,2.111,57.162H239.279a60.929,60.929,0,0,0-80.936-9.52l.43-9.282Z" transform="translate(201.9 359.472)"/>
      <path id="Path_138" data-name="Path 138" class="cls-24" d="M189.275,465.684A60.918,60.918,0,0,1,250.2,526.6h-6.839A54.094,54.094,0,0,0,163.9,478.835l-3.206-6.039a60.65,60.65,0,0,1,28.581-7.112Z" transform="translate(206.15 382.954)"/>
      <path id="Path_139" data-name="Path 139" class="cls-25" d="M195.477,454.524V444.31a10.968,10.968,0,0,0-2.973-7.667,11.137,11.137,0,0,0-6.148-3.4v-7.083a18.25,18.25,0,0,1,11.264,5.674,17.908,17.908,0,0,1,4.9,12.479v10.214Z" transform="translate(252.533 311.507)"/>
      <path id="Path_140" data-name="Path 140" class="cls-26" d="M220.964,432.624l40.782.022,3.459,53.116c-21.242,6.6-41.293,21.694-46.95,47.77-1.061,4.891-4.2,6.539-7.732,6.539h-2.448c-3.557,0-7.872-1.533-8.571-5.946-4.512-28.505.792-63.234,9.349-92.924,1.567-5.427,4.992-8.58,12.112-8.577Zm46.614.025,13.844.006c4.284,0,9.529,2.653,10.531,7.322l5.705,35.131c.828,4.63-3.06,6.6-6.323,6.755-5.7.264-14.74,1.019-20.268,2.308l-3.49-51.521Z" transform="translate(273.322 323.196)"/>
      <path id="Path_141" data-name="Path 141" class="cls-27" d="M253.611,461.15a205.438,205.438,0,0,0,3.358,33.429H231.063a60.984,60.984,0,0,0-68.175-16.441c24.423-10.43,70.573-16.988,90.723-16.988Z" transform="translate(210.115 374.758)"/>
      <path id="Path_142" data-name="Path 142" class="cls-28" d="M222.594,435.244l30.827.014,2.931,45.025c-5.621,1.746-16.668,6.359-21.422,9.717-2.434,1.721-6.7,5.859-13.063,4.152l-21.736-8.644a23.059,23.059,0,0,1,.126-2.414c1.109-13.782,6.718-29.886,11.716-40.327,2.142-4.467,4.377-7.524,10.621-7.521Zm41.378.02,5.817,0c3.757,0,8.352,2.327,9.234,6.424l5,30.8a4.464,4.464,0,0,1-2.184,4.972c-2.465.169-10.874.141-14.97.6l-2.9-42.807Z" transform="translate(277.425 327.932)"/>
      <path id="Path_143" data-name="Path 143" class="cls-22" d="M202.756,474.619h32.079a63.728,63.728,0,0,0-.96,35.833H208.388a8.04,8.04,0,0,1-7.634-6.6l-3.56-22.64a5.511,5.511,0,0,1,5.562-6.595Z" transform="translate(271.979 399.104)"/>
      <path id="Path_144" data-name="Path 144" class="cls-17" d="M254.492,479.211h11.036a4.3,4.3,0,0,1,4.287,4.287v4.731a4.3,4.3,0,0,1-4.287,4.287H254.492a60.824,60.824,0,0,0,0-13.3Z" transform="translate(375.693 407.404)"/>
      <path id="Path_145" data-name="Path 145" class="cls-29" d="M262.605,484.192a5.289,5.289,0,0,1,10.349-2.2,30.5,30.5,0,0,1-44.244,33.32A5.278,5.278,0,0,1,233.676,506a19.958,19.958,0,0,0,29.37-17.592,20.751,20.751,0,0,0-.1-2.114,20.331,20.331,0,0,0-.343-2.1Z" transform="translate(324.038 404.86)"/>
      <path id="Path_146" data-name="Path 146" class="cls-17" d="M240.739,476.767a13.514,13.514,0,1,1-13.515,13.515,13.516,13.516,0,0,1,13.515-13.515Z" transform="translate(326.405 402.987)"/>
      <path id="Path_147" data-name="Path 147" class="cls-17" d="M234.187,471.4a3.337,3.337,0,1,0,3.335,3.338,3.339,3.339,0,0,0-3.335-3.338Z" transform="translate(332.957 393.289)"/>
      <path id="Path_148" data-name="Path 148" class="cls-17" d="M243.177,480.392a3.337,3.337,0,1,0,3.335,3.338,3.337,3.337,0,0,0-3.335-3.338Z" transform="translate(349.207 409.539)"/>
      <path id="Path_149" data-name="Path 149" class="cls-17" d="M234.187,489.382a3.337,3.337,0,1,0,3.335,3.336,3.338,3.338,0,0,0-3.335-3.336Z" transform="translate(332.957 425.789)"/>
      <path id="Path_150" data-name="Path 150" class="cls-17" d="M225.2,480.392a3.337,3.337,0,1,0,3.335,3.338,3.339,3.339,0,0,0-3.335-3.338Z" transform="translate(316.707 409.539)"/>
      <path id="Path_151" data-name="Path 151" class="cls-6" d="M520.461,489c25.226,0,49.2,18.434,57.075,42.568H477.5C477.377,507.437,495.238,489,520.461,489Z" transform="translate(778.782 425.104)"/>
      <path id="Path_152" data-name="Path 152" class="cls-30" d="M596.334,427.245a85.776,85.776,0,0,1,85.776,85.776c0,47.374-40.836,85.776-80.4,85.776-24.128,0-69.517-7.535-77.351-58.852-29.341-21.831-19.094-90.456,34.019-94.131,2.184-13.17,22.7-18.569,37.958-18.569Z" transform="translate(834.299 313.474)"/>
      <path id="Path_153" data-name="Path 153" class="cls-31" d="M640.941,442.479a85.541,85.541,0,0,1,26.927,62.406c0,47.374-40.836,85.776-80.4,85.776-19.574,0-53.138-4.958-69.293-34.227-7.7-22.477,5.705-31.172,44.587-10.972,36.925,19.184,26.526-14.608,55.247-14.608,27.553,0,41.31-32.087,19.622-60.306-18.914-24.605-32.483-55.477,3.313-28.07Z" transform="translate(848.541 321.61)"/>
      <path id="Path_154" data-name="Path 154" class="cls-32" d="M539.753,532.82h7.7V488.349c-.918.042-1.839.067-2.757.067-1.564,0-3.217-.031-4.941-.1V532.82Z" transform="translate(891.312 423.855)"/>
      <path id="Path_155" data-name="Path 155" class="cls-33" d="M527.146,464.3c11.825-3.585,10.014,14.29,0,14.29-9.958,0-11.859-17.909,0-14.29Z" transform="translate(853.709 379.572)"/>
      <path id="Path_156" data-name="Path 156" class="cls-33" d="M543.867,455.648c11.825-3.582,10.014,14.29,0,14.29-9.956,0-11.859-17.907,0-14.29Z" transform="translate(883.933 363.942)"/>
      <path id="Path_157" data-name="Path 157" class="cls-33" d="M562.212,464.3c11.828-3.585,10.017,14.29,0,14.29-9.955,0-11.856-17.909,0-14.29Z" transform="translate(917.095 379.572)"/>
      <path id="Path_158" data-name="Path 158" class="cls-33" d="M527.146,448.432c11.825-3.58,10.014,14.293,0,14.293-9.958,0-11.859-17.909,0-14.293Z" transform="translate(853.709 350.899)"/>
      <path id="Path_159" data-name="Path 159" class="cls-33" d="M562.212,448.432c11.828-3.58,10.017,14.293,0,14.293-9.955,0-11.856-17.909,0-14.293Z" transform="translate(917.095 350.899)"/>
      <path id="Path_160" data-name="Path 160" class="cls-33" d="M543.21,471.607c11.828-3.583,10.017,14.29,0,14.29-9.956,0-11.856-17.906,0-14.29Z" transform="translate(882.749 392.787)"/>
      <path id="Path_161" data-name="Path 161" class="cls-33" d="M544.85,439.339c11.825-3.582,10.014,14.29,0,14.29-9.958,0-11.859-17.907,0-14.29Z" transform="translate(885.71 334.463)"/>
      <path id="Path_162" data-name="Path 162" class="cls-34" d="M424.34,475.335c29.83-12.213,58.969,22.18,46.282,49.4,1.356,11.138-8.122,16.915-15.632,14.841-3.546,10.655-18.277,15.045-30.65,11.539-6.469,4.276-19.453.463-21.868-6.123-19.274.592-30.436-18.432-24.282-32.014-6.379-8.667,4.683-25.125,15.3-24.712,1.2-9.986,19.4-18.751,30.852-12.934Z" transform="translate(595.885 395.811)"/>
      <path id="Path_163" data-name="Path 163" class="cls-35" d="M403.438,501.225v16.643h5.7V497h-.253l-.1,0-.051,0-.211-.006-.1-.006-.194-.011-.048-.006-.05,0-.084-.008c-.09-.006-.177-.014-.267-.025l-.034,0-.017,0c-.1-.011-.2-.023-.3-.037l-.048-.006h0l-.017,0c-.093-.014-.185-.028-.281-.045l-.048-.008-.051-.008c-.1-.017-.191-.036-.286-.056l-.059-.011c-.107-.022-.213-.045-.32-.07l-.008-.006H406.3c-.115-.028-.227-.059-.34-.09-.056.16-.109.32-.169.477l-.005.017-.006.011c-.056.152-.115.3-.177.449l-.02.051c-.059.143-.121.284-.185.427l-.02.048c-.064.138-.129.272-.194.407l-.036.073c-.059.121-.121.239-.185.357l-.076.138c-.056.1-.112.208-.171.309l-.079.132c-.062.107-.126.211-.191.314l-.081.132-.151.233-.045.067-.09.129-.168.241-.157.216-.126.171c-.062.079-.124.16-.185.241Z" transform="translate(644.918 438.807)"/>
      <path id="Path_164" data-name="Path 164" class="cls-36" d="M396.979,501.6v8.588h5.7v-9.354l-.087.02-.087.019-.346.076-.087.018-.087.018L401.9,501l-.261.052-.088.018-.087.016-.088.017-.01,0-.342.061-.088.015-.088.015-.087.014-.266.042-.089.013-.088.015-.09.013-.088.013-.259.036-.008,0-.09.012-.088.011-.09.012-.269.033-.089.009-.09.01-.09.009-.09.01-.27.026-.091.01-.09.008-.091.008h0l-.268.022-.09.008-.091.006-.091.006-.091.006-.25.016-.021,0-.091,0-.181.01-.091,0-.182.008Z" transform="translate(633.243 446.487)"/>
      <path id="Path_165" data-name="Path 165" class="cls-35" d="M390.132,501.426V509.5h5.7v-8.293h0l-.192.041-.226.045-.084.016-.085.016-.256.043-.086.013-.259.038-.087.011-.087.011-.262.03-.087.01-.088.008-.176.016-.089.007-.089.007-.266.017-.089.006-.089,0-.18.008-.09,0-.09,0h-.025l-.227,0h-.38l-.092,0-.091,0-.091,0-.182-.006-.092,0-.091,0h-.016l-.189-.01h-.01l-.15-.01-.092-.005h-.013l-.156-.012-.022,0-.188-.016-.264-.026-.092-.009-.091-.01-.185-.021Z" transform="translate(620.868 447.17)"/>
      <path id="Path_166" data-name="Path 166" class="cls-36" d="M383.674,498.376v16.253h5.7V499.26l0-.006-.006-.008,0-.009,0-.008,0-.008-.006-.006,0-.008,0-.008,0-.008-.006-.006,0-.008,0-.008,0-.008,0-.005-.006-.009,0-.008,0-.008-.006-.009,0-.006-.036-.087,0-.008,0-.008-.09-.227,0-.008,0-.006,0-.008c-.295.008-.587.011-.876.011h-.036c-.272,0-.545,0-.814-.011l-.011,0h-.079l-.011,0H387.3c-.213-.008-.427-.02-.64-.031h-.011l-.011,0h-.022l-.227-.014h-.008l-.011,0h-.008l-.02,0h-.008c-.163-.011-.323-.025-.486-.039h-.017l-.011,0h-.028l-.008,0h-.011l-.261-.025H385.5l-.005,0h-.009l-.008,0h-.008c-.138-.011-.272-.028-.41-.045l-.006,0h-.025l-.008,0H385l-.006,0h-.008l-.368-.048h-.006l-.008,0h-.011l-.009,0h-.006l-.084-.011-.081-.014-.149-.02-.008,0h-.011l-.008,0h-.02l-.017-.005h-.011q-.232-.034-.463-.076h-.008l-.008,0-.008,0h-.011l-.008,0-.008,0Z" transform="translate(609.194 442.046)"/>
      <path id="Path_167" data-name="Path 167" class="cls-5" d="M416.718,474.2c12.176-2.81,29.527,2.962,32.587,11.233,17.743,7.552,19.978,35.76.632,41.717-1.836,12.909-20.9,15.09-31.225,12.14-5.4,3.6-16.233.39-18.246-5.155-16.082.5-25.4-15.509-20.262-26.936-5.323-7.294-2.37-21.893,11.345-24.162,1.794-8.175,15.183-13.344,25.17-8.838Z" transform="translate(598.419 395.33)"/>
      <path id="Path_168" data-name="Path 168" class="cls-37" d="M392.137,483.606c1.96,2.678-.182,8.406-4.787,12.794s-9.927,5.767-11.89,3.085.18-8.409,4.787-12.794,9.928-5.769,11.89-3.085Z" transform="translate(593.032 412.873)"/>
      <path id="Path_169" data-name="Path 169" class="cls-35" d="M375.345,498.736c-.194-2.184,2.372-6.4,6.353-10.191s8.074-5.918,9.925-5.312c.761,2.962-1.379,7.757-5.36,11.55s-8.5,5.337-10.918,3.953Z" transform="translate(594.12 414.489)"/>
      <path id="Path_170" data-name="Path 170" class="cls-37" d="M388.913,483.6c-1.962,2.681.183,8.409,4.787,12.8s9.927,5.767,11.89,3.085-.183-8.409-4.787-12.794-9.927-5.77-11.89-3.088Z" transform="translate(617.349 412.872)"/>
      <path id="Path_171" data-name="Path 171" class="cls-35" d="M404.618,498.736c.194-2.184-2.372-6.4-6.353-10.191s-8.077-5.918-9.925-5.312c-.764,2.962,1.378,7.757,5.36,11.55s8.5,5.337,10.919,3.953Z" transform="translate(617.35 414.489)"/>
      <path id="Path_172" data-name="Path 172" class="cls-38" d="M394.475,523.69c23.729,0,16.489-43.534,0-43.534s-23.729,43.534,0,43.534Z" transform="translate(601.24 409.112)"/>
      <path id="Path_173" data-name="Path 173" class="cls-37" d="M392.584,517.7c20.119,0,14.436-36.265.735-37.531-6.626.581-11.637,8.22-13.546,16.943-1.415,9.953,1.915,20.588,12.811,20.588Z" transform="translate(601.587 409.136)"/>
      <path id="Path_174" data-name="Path 174" class="cls-39" d="M383.557,485.552a2.451,2.451,0,1,1-2.131,2.428,2.294,2.294,0,0,1,2.131-2.428Z" transform="translate(605.131 418.866)"/>
      <path id="Path_175" data-name="Path 175" class="cls-39" d="M388.564,485.552a2.451,2.451,0,1,1-2.131,2.428,2.294,2.294,0,0,1,2.131-2.428Z" transform="translate(614.181 418.866)"/>
      <path id="Path_176" data-name="Path 176" class="cls-40" d="M548.877,499.631v86.1H537.7V539.7a15.088,15.088,0,0,1-3.953.528H462.077v45.51H450.9v-45.51h-7.611a15.174,15.174,0,0,1-15.13-15.13V474.167a15.174,15.174,0,0,1,15.13-15.13h90.459a15.189,15.189,0,0,1,14.8,11.98,3.285,3.285,0,0,1,.334-.02,12.753,12.753,0,0,1,12.752,12.755V537.1c2.035,1.962,3.417,5.764,3.417,10.13,0,6.381-5.256,15.753-6.586,15.753s-6.584-9.372-6.584-15.753c0-4.366,1.381-8.167,3.417-10.13V483.752a6.412,6.412,0,0,0-6.415-6.415v22.295Z" transform="translate(689.602 370.939)"/>
      <path id="Path_177" data-name="Path 177" class="cls-41" d="M459.075,487.955h11.176v45.51H459.075v-45.51Z" transform="translate(745.485 423.209)"/>
      <path id="Path_178" data-name="Path 178" class="cls-41" d="M428.159,482.566a15.19,15.19,0,0,0,11.177,14.6v46.038H428.159v-60.64Z" transform="translate(689.602 413.469)"/>
      <path id="Path_179" data-name="Path 179" class="cls-42" d="M492.214,487.955a20.117,20.117,0,0,1-7.165,15.411l4.658,7.721a3.164,3.164,0,1,1-5.419,3.268l-4.658-7.715a20.153,20.153,0,0,1-4.408,1.227v9.012a3.168,3.168,0,1,1-6.337,0v-9.012a20.152,20.152,0,0,1-4.408-1.227l-4.658,7.715a3.164,3.164,0,1,1-5.419-3.268l4.658-7.721a20.118,20.118,0,0,1-7.165-15.411Z" transform="translate(732.506 423.209)"/>
      <path id="Path_180" data-name="Path 180" class="cls-41" d="M471.038,463.317a3.284,3.284,0,0,1,.334-.02,12.754,12.754,0,0,1,12.752,12.755V529.4c2.035,1.962,3.417,5.764,3.417,10.13,0,6.381-5.256,15.753-6.586,15.753s-6.584-9.372-6.584-15.753c0-4.366,1.381-8.167,3.417-10.13V476.052a6.417,6.417,0,0,0-6.415-6.415v-3.17a14.933,14.933,0,0,0-.334-3.15Z" transform="translate(767.108 378.639)"/>
      <path id="Path_181" data-name="Path 181" class="cls-41" d="M421.983,468.36c6.477-2.684,12.859-2.136,14.251,1.224s-2.732,8.26-9.212,10.944-12.859,2.137-14.251-1.227,2.732-8.257,9.212-10.941Z" transform="translate(661.299 384.711)"/>
      <path id="Path_182" data-name="Path 182" class="cls-43" d="M435.891,467.829c.969,3.341-3.088,7.99-9.338,10.579-5.929,2.457-11.778,2.2-13.793-.432a51.27,51.27,0,0,0,23.131-10.146Z" transform="translate(661.768 386.831)"/>
      <path id="Path_183" data-name="Path 183" class="cls-41" d="M449.693,468.438c-6.48-2.684-12.859-2.136-14.251,1.224s2.732,8.26,9.212,10.944,12.859,2.134,14.251-1.224-2.735-8.26-9.212-10.944Z" transform="translate(702.278 384.852)"/>
      <path id="Path_184" data-name="Path 184" class="cls-43" d="M435.315,467.907c-.969,3.341,3.088,7.99,9.338,10.579,5.93,2.457,11.778,2.2,13.793-.432a51.225,51.225,0,0,1-23.131-10.146Z" transform="translate(702.279 386.972)"/>
      <path id="Path_185" data-name="Path 185" class="cls-44" d="M417.637,461.422c6.244,6.154,13.552,9.964,23.269,9.781l-.1.107a12.189,12.189,0,0,0-10.231,9.445l0,0c-8.6-3.42-14.2-9.891-14.835-17.488-.281-3.31.941-2.869,1.9-1.847Z" transform="translate(667.083 373.902)"/>
      <path id="Path_186" data-name="Path 186" class="cls-44" d="M454.368,461.422c-6.244,6.154-13.555,9.964-23.269,9.781a12.168,12.168,0,0,1,11.7,8.967c7.819-3.54,12.859-9.717,13.462-16.9.278-3.31-.941-2.869-1.9-1.847Z" transform="translate(694.916 373.902)"/>
      <path id="Path_187" data-name="Path 187" class="cls-41" d="M433.021,464.426h16.511a12.158,12.158,0,0,1,12.123,12.123v38.424a12.158,12.158,0,0,1-12.123,12.12H433.021a12.157,12.157,0,0,1-12.12-12.12V476.549a12.158,12.158,0,0,1,12.12-12.123Z" transform="translate(676.483 380.68)"/>
      <path id="Path_188" data-name="Path 188" class="cls-40" d="M433.024,464.426h8.254A12.158,12.158,0,0,1,453.4,476.549v38.424a12.158,12.158,0,0,1-12.123,12.12h-8.254a12.158,12.158,0,0,1-12.123-12.12V476.549a12.158,12.158,0,0,1,12.123-12.123Z" transform="translate(676.483 380.68)"/>
      <path id="Path_189" data-name="Path 189" class="cls-45" d="M426.538,471.305a2.888,2.888,0,1,1-2.889,2.886,2.885,2.885,0,0,1,2.889-2.886Z" transform="translate(681.45 393.114)"/>
      <path id="Path_190" data-name="Path 190" class="cls-45" d="M433.5,471.305a2.888,2.888,0,1,1-2.886,2.886,2.885,2.885,0,0,1,2.886-2.886Z" transform="translate(694.036 393.114)"/>
      <path id="Path_191" data-name="Path 191" class="cls-42" d="M425.118,480.751h38.9a6.053,6.053,0,0,1,6.036,6.033v17.542a6.054,6.054,0,0,1-6.036,6.036h-38.9a6.054,6.054,0,0,1-6.036-6.036V486.784a6.053,6.053,0,0,1,6.036-6.033Z" transform="translate(673.195 410.188)"/>
      <path id="Path_192" data-name="Path 192" class="cls-46" d="M425.118,480.751H456.06a6.053,6.053,0,0,1,6.036,6.033V497.8a6.056,6.056,0,0,1-6.036,6.036H425.118a6.054,6.054,0,0,1-6.036-6.036V486.784a6.052,6.052,0,0,1,6.036-6.033Z" transform="translate(673.195 410.188)"/>
      <path id="Path_193" data-name="Path 193" class="cls-47" d="M423.8,483.132a3.295,3.295,0,1,1-3.3,3.293,3.293,3.293,0,0,1,3.3-3.293Z" transform="translate(675.757 414.491)"/>
      <path id="Path_194" data-name="Path 194" class="cls-47" d="M436.764,483.132a3.295,3.295,0,1,1-3.293,3.293,3.293,3.293,0,0,1,3.293-3.293Z" transform="translate(699.204 414.491)"/>
      <path id="Path_195" data-name="Path 195" class="cls-43" d="M475.642,486.841c-2.035,1.962-3.417,5.764-3.417,10.13,0,6.381,5.256,15.753,6.584,15.753s6.586-9.372,6.586-15.753c0-4.366-1.381-8.167-3.417-10.13Z" transform="translate(769.253 421.196)"/>
      <path id="Path_196" data-name="Path 196" class="cls-40" d="M81.241,499.631v86.1H92.418V539.7a15.056,15.056,0,0,0,3.953.528h71.671v45.51h11.174v-45.51h7.614a15.174,15.174,0,0,0,15.13-15.13V474.167a15.174,15.174,0,0,0-15.13-15.13H96.371a15.192,15.192,0,0,0-14.8,11.98,3.182,3.182,0,0,0-.331-.02A12.753,12.753,0,0,0,68.49,483.752V537.1c-2.038,1.962-3.42,5.764-3.42,10.13,0,6.381,5.256,15.753,6.586,15.753s6.584-9.372,6.584-15.753c0-4.366-1.379-8.167-3.414-10.13V483.752a6.413,6.413,0,0,1,6.415-6.415v22.295Z" transform="translate(33.306 370.939)"/>
      <path id="Path_197" data-name="Path 197" class="cls-41" d="M90.107,487.955H78.93v45.51H90.107v-45.51Z" transform="translate(58.358 423.209)"/>
      <path id="Path_198" data-name="Path 198" class="cls-41" d="M121.024,482.566a15.19,15.19,0,0,1-11.177,14.6v46.038h11.177v-60.64Z" transform="translate(114.242 413.469)"/>
      <path id="Path_199" data-name="Path 199" class="cls-48" d="M75.731,487.955a20.115,20.115,0,0,0,7.162,15.411l-4.658,7.721a3.165,3.165,0,1,0,5.421,3.268l4.655-7.715a20.153,20.153,0,0,0,4.408,1.227v9.012a3.17,3.17,0,0,0,6.339,0v-9.012a20.153,20.153,0,0,0,4.408-1.227l4.655,7.715a3.165,3.165,0,1,0,5.421-3.268l-4.66-7.721a20.108,20.108,0,0,0,7.165-15.411Z" transform="translate(52.576 423.209)"/>
      <path id="Path_200" data-name="Path 200" class="cls-41" d="M107.748,468.281c6.477-2.684,12.859-2.137,14.251,1.224s-2.732,8.26-9.212,10.944-12.859,2.136-14.251-1.224,2.732-8.26,9.212-10.944Z" transform="translate(93.308 384.568)"/>
      <path id="Path_201" data-name="Path 201" class="cls-41" d="M81.573,463.317a3.182,3.182,0,0,0-.331-.02A12.753,12.753,0,0,0,68.49,476.052V529.4c-2.038,1.962-3.42,5.764-3.42,10.13,0,6.381,5.256,15.753,6.586,15.753s6.584-9.372,6.584-15.753c0-4.366-1.379-8.167-3.414-10.13V476.052a6.413,6.413,0,0,1,6.415-6.415v-3.17a15.122,15.122,0,0,1,.331-3.15Z" transform="translate(33.306 378.639)"/>
      <path id="Path_202" data-name="Path 202" class="cls-43" d="M121.656,467.75c.969,3.341-3.088,7.99-9.338,10.579-5.93,2.456-11.778,2.207-13.793-.432a51.209,51.209,0,0,0,23.131-10.146Z" transform="translate(93.777 386.688)"/>
      <path id="Path_203" data-name="Path 203" class="cls-43" d="M68.49,486.841c-2.038,1.962-3.42,5.764-3.42,10.13,0,6.381,5.256,15.753,6.586,15.753s6.584-9.372,6.584-15.753c0-4.366-1.379-8.167-3.414-10.13Z" transform="translate(33.306 421.196)"/>
      <path id="Path_204" data-name="Path 204" class="cls-41" d="M135.458,468.36c-6.48-2.684-12.858-2.136-14.251,1.224s2.732,8.26,9.212,10.944,12.859,2.137,14.251-1.227-2.732-8.257-9.212-10.941Z" transform="translate(134.287 384.711)"/>
      <path id="Path_205" data-name="Path 205" class="cls-43" d="M121.078,467.829c-.966,3.341,3.091,7.99,9.341,10.579,5.93,2.457,11.778,2.2,13.791-.432a51.284,51.284,0,0,1-23.131-10.146Z" transform="translate(134.286 386.831)"/>
      <path id="Path_206" data-name="Path 206" class="cls-49" d="M140.578,461.422c-6.244,6.154-13.555,9.964-23.269,9.781l.1.107a12.192,12.192,0,0,1,10.231,9.445v0c8.6-3.42,14.2-9.891,14.838-17.488.278-3.31-.943-2.869-1.9-1.847Z" transform="translate(127.73 373.902)"/>
      <path id="Path_207" data-name="Path 207" class="cls-49" d="M103.845,461.422c6.244,6.154,13.555,9.964,23.269,9.781a12.173,12.173,0,0,0-11.7,8.967c-7.816-3.54-12.856-9.717-13.462-16.9-.278-3.31.943-2.869,1.9-1.847Z" transform="translate(99.895 373.902)"/>
      <path id="Path_208" data-name="Path 208" class="cls-41" d="M135.2,464.426H118.69a12.158,12.158,0,0,0-12.12,12.123v38.424a12.157,12.157,0,0,0,12.12,12.12H135.2a12.158,12.158,0,0,0,12.123-12.12V476.549A12.158,12.158,0,0,0,135.2,464.426Z" transform="translate(108.318 380.68)"/>
      <path id="Path_209" data-name="Path 209" class="cls-40" d="M129.887,464.426h-8.254a12.158,12.158,0,0,0-12.123,12.123v38.424a12.158,12.158,0,0,0,12.123,12.12h8.254a12.158,12.158,0,0,0,12.123-12.12V476.549a12.158,12.158,0,0,0-12.123-12.123Z" transform="translate(113.633 380.68)"/>
      <path id="Path_210" data-name="Path 210" class="cls-45" d="M119.167,471.305a2.888,2.888,0,1,0,2.886,2.886,2.885,2.885,0,0,0-2.886-2.886Z" transform="translate(125.871 393.114)"/>
      <path id="Path_211" data-name="Path 211" class="cls-45" d="M112.2,471.305a2.888,2.888,0,1,0,2.889,2.886,2.885,2.885,0,0,0-2.889-2.886Z" transform="translate(113.286 393.114)"/>
      <path id="Path_212" data-name="Path 212" class="cls-48" d="M149.68,480.751H110.787a6.052,6.052,0,0,0-6.036,6.033v17.542a6.052,6.052,0,0,0,6.036,6.036H149.68a6.052,6.052,0,0,0,6.036-6.036V486.784a6.052,6.052,0,0,0-6.036-6.033Z" transform="translate(105.031 410.188)"/>
      <path id="Path_213" data-name="Path 213" class="cls-46" d="M144.562,480.751H113.62a6.052,6.052,0,0,0-6.036,6.033V497.8a6.054,6.054,0,0,0,6.036,6.036h30.942A6.051,6.051,0,0,0,150.6,497.8V486.784a6.051,6.051,0,0,0-6.033-6.033Z" transform="translate(110.151 410.188)"/>
      <path id="Path_214" data-name="Path 214" class="cls-47" d="M122.436,483.132a3.295,3.295,0,1,0,3.293,3.293,3.3,3.3,0,0,0-3.293-3.293Z" transform="translate(131.039 414.491)"/>
      <path id="Path_215" data-name="Path 215" class="cls-47" d="M109.462,483.132a3.295,3.295,0,1,0,3.293,3.293,3.293,3.293,0,0,0-3.293-3.293Z" transform="translate(107.594 414.491)"/>
      <path id="Path_216" data-name="Path 216" class="cls-5" d="M318.164,540.225h15.45v45.51h11.177v-45.51H352.4a15.174,15.174,0,0,0,15.13-15.13V474.167a15.174,15.174,0,0,0-15.13-15.13H318.164v81.188Z" transform="translate(490.782 370.939)"/>
      <path id="Path_217" data-name="Path 217" class="cls-50" d="M331.768,497.168v46.038h11.174v-60.64a15.191,15.191,0,0,1-11.174,14.6Z" transform="translate(515.372 413.469)"/>
      <path id="Path_218" data-name="Path 218" class="cls-17" d="M336.736,474.928c-6.929,0-16.8,3.5-16.545,12.106s10.332,12.109,17.261,12.109a11.9,11.9,0,0,0,12.19-12.109,12.781,12.781,0,0,0-12.906-12.106Z" transform="translate(494.438 399.663)"/>
      <path id="Path_219" data-name="Path 219" class="cls-50" d="M329.615,468.488c6.48-2.684,12.861-2.134,14.251,1.227s-2.732,8.257-9.209,10.944-12.861,2.134-14.251-1.224,2.732-8.26,9.209-10.947Z" transform="translate(494.346 384.945)"/>
      <path id="Path_220" data-name="Path 220" class="cls-50" d="M357.282,468.281c-6.48-2.684-12.859-2.137-14.251,1.224s2.732,8.26,9.212,10.944,12.858,2.136,14.251-1.224-2.732-8.26-9.211-10.944Z" transform="translate(535.242 384.568)"/>
      <path id="Path_221" data-name="Path 221" class="cls-51" d="M343.526,467.958c.969,3.341-3.091,7.99-9.338,10.579-5.932,2.457-11.778,2.207-13.794-.433a51.223,51.223,0,0,0,23.131-10.146Z" transform="translate(494.815 387.064)"/>
      <path id="Path_222" data-name="Path 222" class="cls-51" d="M342.9,467.75c-.969,3.341,3.088,7.99,9.338,10.579,5.929,2.456,11.778,2.207,13.793-.432A51.2,51.2,0,0,1,342.9,467.75Z" transform="translate(535.243 386.688)"/>
      <path id="Path_223" data-name="Path 223" class="cls-52" d="M325.225,461.422c6.244,6.154,13.555,9.964,23.269,9.781l-.1.107a12.192,12.192,0,0,0-10.231,9.445l0,0c-8.6-3.42-14.2-9.891-14.835-17.488-.278-3.31.941-2.869,1.9-1.847Z" transform="translate(500.047 373.902)"/>
      <path id="Path_224" data-name="Path 224" class="cls-52" d="M361.957,461.422c-6.244,6.154-13.552,9.964-23.269,9.781a12.173,12.173,0,0,1,11.7,8.967c7.816-3.54,12.859-9.717,13.462-16.9.278-3.31-.943-2.869-1.9-1.847Z" transform="translate(527.88 373.902)"/>
      <path id="Path_225" data-name="Path 225" class="cls-50" d="M340.613,464.426h16.508a12.158,12.158,0,0,1,12.123,12.123v38.424a12.158,12.158,0,0,1-12.123,12.12H340.613a12.158,12.158,0,0,1-12.123-12.12V476.549a12.158,12.158,0,0,1,12.123-12.123Z" transform="translate(509.447 380.68)"/>
      <path id="Path_226" data-name="Path 226" class="cls-5" d="M340.613,464.426h8.254a12.158,12.158,0,0,1,12.123,12.123v38.424a12.158,12.158,0,0,1-12.123,12.12h-8.254a12.158,12.158,0,0,1-12.123-12.12V476.549a12.158,12.158,0,0,1,12.123-12.123Z" transform="translate(509.447 380.68)"/>
      <path id="Path_227" data-name="Path 227" class="cls-17" d="M334.125,471.305a2.888,2.888,0,1,1-2.886,2.886,2.885,2.885,0,0,1,2.886-2.886Z" transform="translate(514.416 393.114)"/>
      <path id="Path_228" data-name="Path 228" class="cls-17" d="M341.09,471.305a2.888,2.888,0,1,1-2.889,2.886,2.887,2.887,0,0,1,2.889-2.886Z" transform="translate(527 393.114)"/>
      <path id="Path_229" data-name="Path 229" class="cls-42" d="M332.705,480.751h38.9a6.052,6.052,0,0,1,6.036,6.033v17.542a6.052,6.052,0,0,1-6.036,6.036h-38.9a6.052,6.052,0,0,1-6.034-6.036V486.784a6.051,6.051,0,0,1,6.034-6.033Z" transform="translate(506.161 410.188)"/>
      <path id="Path_230" data-name="Path 230" class="cls-46" d="M332.707,480.751h30.945a6.051,6.051,0,0,1,6.033,6.033V497.8a6.053,6.053,0,0,1-6.033,6.036H332.707a6.054,6.054,0,0,1-6.036-6.036V486.784a6.053,6.053,0,0,1,6.036-6.033Z" transform="translate(506.159 410.188)"/>
      <path id="Path_231" data-name="Path 231" class="cls-47" d="M331.382,483.132a3.295,3.295,0,1,1-3.293,3.293,3.293,3.293,0,0,1,3.293-3.293Z" transform="translate(508.722 414.491)"/>
      <path id="Path_232" data-name="Path 232" class="cls-47" d="M344.354,483.132a3.295,3.295,0,1,1-3.293,3.293,3.293,3.293,0,0,1,3.293-3.293Z" transform="translate(532.169 414.491)"/>
    </g>
  </g>
</svg>
